<svg xmlns="http://www.w3.org/2000/svg" version="1.1" width="479px" height="127px" style="shape-rendering:geometricPrecision; text-rendering:geometricPrecision; image-rendering:optimizeQuality; fill-rule:evenodd; clip-rule:evenodd" xmlns:xlink="http://www.w3.org/1999/xlink">
<g><path style="opacity:0.337" fill="#b1b1bb" d="M 413.5,17.5 C 425.322,16.5049 437.322,16.1716 449.5,16.5C 449.5,17.5 449.5,18.5 449.5,19.5C 449.167,19.5 448.833,19.5 448.5,19.5C 437.215,17.5216 425.548,16.8549 413.5,17.5 Z"/></g>
<g><path style="opacity:1" fill="#5b4d24" d="M 277.5,17.5 C 310.671,17.1684 343.671,17.5017 376.5,18.5C 343.833,18.5 311.167,18.5 278.5,18.5C 278.5,24.8333 278.5,31.1667 278.5,37.5C 278.5,37.8333 278.5,38.1667 278.5,38.5C 277.509,31.6866 277.175,24.6866 277.5,17.5 Z"/></g>
<g><path style="opacity:1" fill="#736a5b" d="M 270.5,20.5 C 269.5,20.5 268.5,20.5 267.5,20.5C 267.5,28.8333 267.5,37.1667 267.5,45.5C 266.507,36.6822 266.173,27.6822 266.5,18.5C 259.167,18.5 251.833,18.5 244.5,18.5C 244.214,28.8852 244.548,39.2185 245.5,49.5C 244.833,49.5 244.167,49.5 243.5,49.5C 242.38,38.8798 242.213,28.2131 243,17.5C 251.088,16.3517 259.254,16.1851 267.5,17C 268.365,18.3588 269.365,19.5255 270.5,20.5 Z"/></g>
<g><path style="opacity:1" fill="#fdca06" d="M 267.5,45.5 C 267.5,47.5 268.5,48.5 270.5,48.5C 290.372,49.1895 310.372,49.8562 330.5,50.5C 337.696,52.09 343.029,56.09 346.5,62.5C 349.924,82.4094 341.59,93.4094 321.5,95.5C 301.497,95.6666 281.497,95.5 261.5,95C 267.917,91.0898 272.25,85.5898 274.5,78.5C 289.596,76.705 304.929,75.8717 320.5,76C 323.941,74.6816 325.275,72.1816 324.5,68.5C 324.306,66.0882 322.973,65.0882 320.5,65.5C 301.671,64.6682 282.671,64.1682 263.5,64C 260.348,63.6051 257.348,62.7718 254.5,61.5C 250,58.6614 247,54.6614 245.5,49.5C 244.548,39.2185 244.214,28.8852 244.5,18.5C 251.833,18.5 259.167,18.5 266.5,18.5C 266.173,27.6822 266.507,36.6822 267.5,45.5 Z"/></g>
<g><path style="opacity:0.357" fill="#aeaeb6" d="M 277.5,17.5 C 277.175,24.6866 277.509,31.6866 278.5,38.5C 279.167,38.5 279.833,38.5 280.5,38.5C 280.5,38.8333 280.5,39.1667 280.5,39.5C 280.5,40.1667 280.5,40.8333 280.5,41.5C 279.533,40.1938 278.199,39.5271 276.5,39.5C 276.175,31.9809 276.508,24.6476 277.5,17.5 Z"/></g>
<g><path style="opacity:1" fill="#fdcb06" d="M 376.5,18.5 C 376.5,18.8333 376.5,19.1667 376.5,19.5C 376.334,29.5056 376.5,39.5056 377,49.5C 378.145,48.3636 379.312,47.3636 380.5,46.5C 391.525,37.1372 402.525,27.8039 413.5,18.5C 424.838,18.3335 436.172,18.5001 447.5,19C 431.5,31 415.5,43 399.5,55C 400.373,56.045 401.373,56.8783 402.5,57.5C 417.979,70.1361 433.646,82.6361 449.5,95C 437.838,95.4999 426.171,95.6665 414.5,95.5C 403.796,86.1285 392.796,77.1285 381.5,68.5C 380.5,66.8333 379.167,65.5 377.5,64.5C 377.44,63.9569 377.107,63.6236 376.5,63.5C 375.501,74.1459 375.168,84.8126 375.5,95.5C 368.167,95.5 360.833,95.5 353.5,95.5C 353.5,76.1667 353.5,56.8333 353.5,37.5C 328.5,37.5 303.5,37.5 278.5,37.5C 278.5,31.1667 278.5,24.8333 278.5,18.5C 311.167,18.5 343.833,18.5 376.5,18.5 Z"/></g>
<g><path style="opacity:0.989" fill="#605c5f" d="M 270.5,20.5 C 271.493,29.3178 271.827,38.3178 271.5,47.5C 289.674,47.1699 307.674,47.5032 325.5,48.5C 307.167,48.5 288.833,48.5 270.5,48.5C 268.5,48.5 267.5,47.5 267.5,45.5C 267.5,37.1667 267.5,28.8333 267.5,20.5C 268.5,20.5 269.5,20.5 270.5,20.5 Z"/></g>
<g><path style="opacity:1" fill="#5a5758" d="M 448.5,19.5 C 448.833,19.5 449.167,19.5 449.5,19.5C 450.5,19.5 451.5,19.5 452.5,19.5C 452.67,20.8221 452.337,21.9887 451.5,23C 445.344,26.9971 439.344,31.1638 433.5,35.5C 433.389,34.8826 433.056,34.3826 432.5,34C 437.398,30.3974 442.398,26.8974 447.5,23.5C 447.788,22.1395 448.121,20.8062 448.5,19.5 Z"/></g>
<g><path style="opacity:1" fill="#221e22" d="M 376.5,19.5 C 377.15,19.8039 377.817,20.1373 378.5,20.5C 379.193,29.2246 379.86,37.8912 380.5,46.5C 379.312,47.3636 378.145,48.3636 377,49.5C 376.5,39.5056 376.334,29.5056 376.5,19.5 Z"/></g>
<g><path style="opacity:1" fill="#352f2d" d="M 413.5,18.5 C 413.5,18.1667 413.5,17.8333 413.5,17.5C 425.548,16.8549 437.215,17.5216 448.5,19.5C 448.121,20.8062 447.788,22.1395 447.5,23.5C 442.398,26.8974 437.398,30.3974 432.5,34C 433.056,34.3826 433.389,34.8826 433.5,35.5C 424.563,42.975 415.229,49.975 405.5,56.5C 404.609,57.1098 403.609,57.4431 402.5,57.5C 401.373,56.8783 400.373,56.045 399.5,55C 415.5,43 431.5,31 447.5,19C 436.172,18.5001 424.838,18.3335 413.5,18.5 Z"/></g>
<g><path style="opacity:0.906" fill="#837f82" d="M 277.5,17.5 C 310.669,16.1699 344.002,16.1699 377.5,17.5C 377.833,18.5 378.5,19.1667 379.5,19.5C 380.332,27.8134 380.832,36.1468 381,44.5C 391.434,34.8883 402.267,25.8883 413.5,17.5C 413.5,17.8333 413.5,18.1667 413.5,18.5C 402.525,27.8039 391.525,37.1372 380.5,46.5C 379.86,37.8912 379.193,29.2246 378.5,20.5C 377.817,20.1373 377.15,19.8039 376.5,19.5C 376.5,19.1667 376.5,18.8333 376.5,18.5C 343.671,17.5017 310.671,17.1684 277.5,17.5 Z"/></g>
<g><path style="opacity:0.1" fill="#c5c5c5" d="M 94.5,36.5 C 96.2646,35.5386 98.2646,35.2053 100.5,35.5C 100.5,37.1667 100.5,38.8333 100.5,40.5C 99.5,40.5 98.5,40.5 97.5,40.5C 97.5,40.1667 97.5,39.8333 97.5,39.5C 99.0481,39.1788 99.7148,38.1788 99.5,36.5C 97.8333,36.5 96.1667,36.5 94.5,36.5 Z"/></g>
<g><path style="opacity:0.91" fill="#706d6e" d="M 234.5,38.5 C 233.833,38.5 233.167,38.5 232.5,38.5C 230.656,37.7961 230.156,36.4628 231,34.5C 233.786,32.8158 235.62,33.4825 236.5,36.5C 236.253,37.7133 235.586,38.38 234.5,38.5 Z"/></g>
<g><path style="opacity:1" fill="#5c5859" d="M 124.5,35.5 C 124.5,36.8333 124.5,38.1667 124.5,39.5C 120.672,41.3607 119.005,40.0274 119.5,35.5C 121.167,35.5 122.833,35.5 124.5,35.5 Z"/></g>
<g><path style="opacity:0.408" fill="#a6a5a5" d="M 124.5,35.5 C 126.5,35.5 128.5,35.5 130.5,35.5C 130.5,37.1667 130.5,38.8333 130.5,40.5C 128.379,40.6747 126.379,40.3414 124.5,39.5C 124.5,38.1667 124.5,36.8333 124.5,35.5 Z"/></g>
<g><path style="opacity:0.82" fill="#8d8b8b" d="M 72.5,49.5 C 71.6888,45.3396 71.6888,41.0063 72.5,36.5C 71.5,36.5 70.5,36.5 69.5,36.5C 69.7845,38.4147 69.4511,40.0813 68.5,41.5C 68.5,39.5 68.5,37.5 68.5,35.5C 70.7505,35.1814 72.7505,35.6814 74.5,37C 73.2436,41.0395 72.577,45.2061 72.5,49.5 Z"/></g>
<g><path style="opacity:1" fill="#312d2e" d="M 94.5,36.5 C 96.1667,36.5 97.8333,36.5 99.5,36.5C 99.7148,38.1788 99.0481,39.1788 97.5,39.5C 95.8333,39.5 94.1667,39.5 92.5,39.5C 92.8076,41.924 92.4742,44.2573 91.5,46.5C 90.8165,46.1373 90.1499,45.8039 89.5,45.5C 85.9155,42.65 86.2488,39.8167 90.5,37C 91.7932,36.51 93.1266,36.3433 94.5,36.5 Z"/></g>
<g><path style="opacity:1" fill="#252122" d="M 126.5,36.5 C 127.5,36.5 128.5,36.5 129.5,36.5C 129.5,37.5 129.5,38.5 129.5,39.5C 128.5,39.5 127.5,39.5 126.5,39.5C 126.5,38.5 126.5,37.5 126.5,36.5 Z"/></g>
<g><path style="opacity:1" fill="#504c4d" d="M 204.5,54.5 C 202.901,54.7678 201.568,54.4345 200.5,53.5C 200.727,48.4564 200.394,43.4564 199.5,38.5C 200.073,35.9147 201.739,34.9147 204.5,35.5C 205.698,41.8847 205.698,48.2181 204.5,54.5 Z"/></g>
<g><path style="opacity:1" fill="#413d3e" d="M 72.5,49.5 C 74.3792,50.3414 76.3792,50.6747 78.5,50.5C 79.7564,50.0962 80.9231,49.4295 82,48.5C 82.7648,48.5699 83.2648,48.9033 83.5,49.5C 85.6074,50.4682 87.9407,50.8016 90.5,50.5C 91.5,50.5 92.5,50.5 93.5,50.5C 93.5,51.8333 93.5,53.1667 93.5,54.5C 90.8774,56.2655 87.8774,56.9321 84.5,56.5C 83.469,55.7515 82.3024,55.0848 81,54.5C 79.9887,55.3366 78.8221,55.67 77.5,55.5C 75.8333,55.5 74.1667,55.5 72.5,55.5C 69.9505,55.4392 68.4505,54.1059 68,51.5C 67.2534,48.0764 67.42,44.7431 68.5,41.5C 69.4511,40.0813 69.7845,38.4147 69.5,36.5C 70.5,36.5 71.5,36.5 72.5,36.5C 71.6888,41.0063 71.6888,45.3396 72.5,49.5 Z"/></g>
<g><path style="opacity:1" fill="#101021" d="M 280.5,39.5 C 280.5,39.1667 280.5,38.8333 280.5,38.5C 304.5,38.5 328.5,38.5 352.5,38.5C 352.5,39.5 352.5,40.5 352.5,41.5C 352.167,41.5 351.833,41.5 351.5,41.5C 328.19,39.51 304.524,38.8433 280.5,39.5 Z"/></g>
<g><path style="opacity:1" fill="#6d6a6a" d="M 151.5,37.5 C 156.159,37.0146 157.492,38.848 155.5,43C 154.207,43.49 152.873,43.6567 151.5,43.5C 151.5,41.5 151.5,39.5 151.5,37.5 Z"/></g>
<g><path style="opacity:0.659" fill="#898788" d="M 234.5,39.5 C 235.833,39.5 237.167,39.5 238.5,39.5C 238.5,41.1667 238.5,42.8333 238.5,44.5C 237.167,44.5 235.833,44.5 234.5,44.5C 234.5,44.1667 234.5,43.8333 234.5,43.5C 233.167,42.1667 233.167,40.8333 234.5,39.5 Z"/></g>
<g><path style="opacity:1" fill="#231f20" d="M 280.5,39.5 C 304.524,38.8433 328.19,39.51 351.5,41.5C 327.833,41.5 304.167,41.5 280.5,41.5C 280.5,40.8333 280.5,40.1667 280.5,39.5 Z"/></g>
<g><path style="opacity:1" fill="#262223" d="M 234.5,43.5 C 234.5,42.5 234.5,41.5 234.5,40.5C 235.5,40.5 236.5,40.5 237.5,40.5C 237.5,41.5 237.5,42.5 237.5,43.5C 236.5,43.5 235.5,43.5 234.5,43.5 Z"/></g>
<g><path style="opacity:1" fill="#866d19" d="M 278.5,38.5 C 278.5,38.1667 278.5,37.8333 278.5,37.5C 303.5,37.5 328.5,37.5 353.5,37.5C 353.5,56.8333 353.5,76.1667 353.5,95.5C 360.833,95.5 368.167,95.5 375.5,95.5C 375.833,95.5 376.167,95.5 376.5,95.5C 369.687,96.4912 362.687,96.8245 355.5,96.5C 354.5,96.5 353.5,96.5 352.5,96.5C 352.5,78.1667 352.5,59.8333 352.5,41.5C 352.5,40.5 352.5,39.5 352.5,38.5C 328.5,38.5 304.5,38.5 280.5,38.5C 279.833,38.5 279.167,38.5 278.5,38.5 Z"/></g>
<g><path style="opacity:0.573" fill="#999697" d="M 54.5,39.5 C 58.9083,39.062 60.5749,41.062 59.5,45.5C 57.8333,45.5 56.1667,45.5 54.5,45.5C 54.5,43.5 54.5,41.5 54.5,39.5 Z"/></g>
<g><path style="opacity:1" fill="#252122" d="M 55.5,41.5 C 56.5,41.5 57.5,41.5 58.5,41.5C 58.5,42.5 58.5,43.5 58.5,44.5C 57.5,44.5 56.5,44.5 55.5,44.5C 55.5,43.5 55.5,42.5 55.5,41.5 Z"/></g>
<g><path style="opacity:1" fill="#555152" d="M 109.5,49.5 C 108.624,49.3691 107.957,49.7025 107.5,50.5C 108.18,51.8599 108.847,53.1932 109.5,54.5C 105.746,53.1724 104.579,50.5058 106,46.5C 108.958,42.8547 112.625,40.188 117,38.5C 119.498,43.0522 117.998,45.5522 112.5,46C 111.29,47.0391 110.29,48.2058 109.5,49.5 Z"/></g>
<g><path style="opacity:0.365" fill="#cecdcd" d="M 232.5,38.5 C 233.167,38.5 233.833,38.5 234.5,38.5C 234.5,38.8333 234.5,39.1667 234.5,39.5C 233.167,40.8333 233.167,42.1667 234.5,43.5C 234.5,43.8333 234.5,44.1667 234.5,44.5C 232.167,44.5 229.833,44.5 227.5,44.5C 227.216,42.5853 227.549,40.9187 228.5,39.5C 228.5,40.8333 228.5,42.1667 228.5,43.5C 229.833,43.5 231.167,43.5 232.5,43.5C 232.5,42.1667 232.5,40.8333 232.5,39.5C 232.5,39.1667 232.5,38.8333 232.5,38.5 Z"/></g>
<g><path style="opacity:1" fill="#342f30" d="M 228.5,39.5 C 229.833,39.5 231.167,39.5 232.5,39.5C 232.5,40.8333 232.5,42.1667 232.5,43.5C 231.167,43.5 229.833,43.5 228.5,43.5C 228.5,42.1667 228.5,40.8333 228.5,39.5 Z"/></g>
<g><path style="opacity:1" fill="#656263" d="M 97.5,39.5 C 97.5,39.8333 97.5,40.1667 97.5,40.5C 96.0992,40.9709 94.7658,41.6376 93.5,42.5C 96.109,46.6418 96.109,50.6418 93.5,54.5C 93.5,53.1667 93.5,51.8333 93.5,50.5C 92.5,50.5 91.5,50.5 90.5,50.5C 90.3713,48.7839 90.038,47.1172 89.5,45.5C 90.1499,45.8039 90.8165,46.1373 91.5,46.5C 92.4742,44.2573 92.8076,41.924 92.5,39.5C 94.1667,39.5 95.8333,39.5 97.5,39.5 Z"/></g>
<g><path style="opacity:0.335" fill="#b2b1b1" d="M 134.5,44.5 C 134.365,46.5542 135.032,48.2209 136.5,49.5C 135.5,49.5 134.5,49.5 133.5,49.5C 133.216,47.5853 133.549,45.9187 134.5,44.5 Z"/></g>
<g><path style="opacity:0.796" fill="#9d9b9b" d="M 167.5,47.5 C 166.041,47.4326 164.708,47.7659 163.5,48.5C 164.103,44.8805 165.436,44.5472 167.5,47.5 Z"/></g>
<g><path style="opacity:0.624" fill="#a2a0a0" d="M 227.5,44.5 C 227.795,46.7354 227.461,48.7354 226.5,50.5C 226.5,48.8333 226.5,47.1667 226.5,45.5C 225.5,45.5 224.5,45.5 223.5,45.5C 223.784,47.4147 223.451,49.0813 222.5,50.5C 222.5,48.5 222.5,46.5 222.5,44.5C 224.36,43.9285 226.027,43.9285 227.5,44.5 Z"/></g>
<g><path style="opacity:0.725" fill="#807d7e" d="M 51.5,50.5 C 51.6567,49.1266 51.49,47.7932 51,46.5C 50.3292,47.2524 49.4959,47.5858 48.5,47.5C 49.287,45.8958 50.6203,45.2291 52.5,45.5C 52.7845,47.4147 52.4511,49.0813 51.5,50.5 Z"/></g>
<g><path style="opacity:1" fill="#716e6f" d="M 83.5,49.5 C 83.2648,48.9033 82.7648,48.5699 82,48.5C 80.9231,49.4295 79.7564,50.0962 78.5,50.5C 79.7843,45.6171 82.1177,44.7838 85.5,48C 84.9558,48.7172 84.2891,49.2172 83.5,49.5 Z"/></g>
<g><path style="opacity:1" fill="#555253" d="M 174.5,54.5 C 174.881,53.0689 175.881,52.2355 177.5,52C 176.934,51.0053 176.267,50.172 175.5,49.5C 174.5,48.1667 173.5,48.1667 172.5,49.5C 171.833,49.5 171.167,49.5 170.5,49.5C 169.596,48.791 169.263,47.791 169.5,46.5C 172.879,42.5039 176.379,42.1705 180,45.5C 181.202,50.438 179.369,53.438 174.5,54.5 Z"/></g>
<g><path style="opacity:1" fill="#353132" d="M 51.5,50.5 C 51.1583,51.3382 50.4916,51.6716 49.5,51.5C 48.325,51.719 47.325,51.3857 46.5,50.5C 47.1925,49.4822 47.8592,48.4822 48.5,47.5C 49.4959,47.5858 50.3292,47.2524 51,46.5C 51.49,47.7932 51.6567,49.1266 51.5,50.5 Z"/></g>
<g><path style="opacity:0.231" fill="#b0aeaf" d="M 157.5,49.5 C 157.179,47.9519 156.179,47.2852 154.5,47.5C 154.775,45.2417 155.775,44.9084 157.5,46.5C 158.776,47.6136 158.776,48.6136 157.5,49.5 Z"/></g>
<g><path style="opacity:1" fill="#4c4432" d="M 270.5,48.5 C 288.833,48.5 307.167,48.5 325.5,48.5C 326.833,48.5 328.167,48.5 329.5,48.5C 329.833,49.1667 330.167,49.8333 330.5,50.5C 310.372,49.8562 290.372,49.1895 270.5,48.5 Z"/></g>
<g><path style="opacity:1" fill="#3d393a" d="M 146.5,49.5 C 145.957,49.56 145.624,49.8933 145.5,50.5C 147.973,51.7969 150.307,51.7969 152.5,50.5C 152.932,49.2905 153.599,48.2905 154.5,47.5C 156.179,47.2852 157.179,47.9519 157.5,49.5C 157.5,49.8333 157.5,50.1667 157.5,50.5C 158.946,51.6129 160.613,51.7796 162.5,51C 163.252,50.3292 163.586,49.4959 163.5,48.5C 164.708,47.7659 166.041,47.4326 167.5,47.5C 167.5,48.1667 167.5,48.8333 167.5,49.5C 166.957,49.56 166.624,49.8933 166.5,50.5C 169.809,51.9295 172.809,51.5962 175.5,49.5C 176.267,50.172 176.934,51.0053 177.5,52C 175.881,52.2355 174.881,53.0689 174.5,54.5C 171.077,57.0728 167.577,57.0728 164,54.5C 160.667,57.1667 157.333,57.1667 154,54.5C 149.533,57.1327 145.033,57.1327 140.5,54.5C 136.125,57.4628 132.125,57.1295 128.5,53.5C 122.136,55.6595 115.803,55.9928 109.5,54.5C 108.847,53.1932 108.18,51.8599 107.5,50.5C 107.957,49.7025 108.624,49.3691 109.5,49.5C 111.634,51.0334 114.134,51.7001 117,51.5C 119.033,51.4944 120.866,51.1611 122.5,50.5C 125.297,49.5911 127.63,47.9244 129.5,45.5C 132.153,46.285 132.82,47.785 131.5,50C 133.387,50.7796 135.054,50.6129 136.5,49.5C 135.032,48.2209 134.365,46.5542 134.5,44.5C 137.917,42.9334 141.583,42.4334 145.5,43C 148.993,44.7848 149.326,46.9515 146.5,49.5 Z"/></g>
<g><path style="opacity:0.443" fill="#b0aeae" d="M 140.5,47.5 C 143.797,47.3287 144.131,47.9954 141.5,49.5C 140.702,49.0431 140.369,48.3764 140.5,47.5 Z"/></g>
<g><path style="opacity:0.571" fill="#7e7c7c" d="M 109.5,49.5 C 113.785,50.2949 118.119,50.6282 122.5,50.5C 120.866,51.1611 119.033,51.4944 117,51.5C 114.134,51.7001 111.634,51.0334 109.5,49.5 Z"/></g>
<g><path style="opacity:0.541" fill="#848282" d="M 146.5,49.5 C 148.265,50.4614 150.265,50.7947 152.5,50.5C 150.307,51.7969 147.973,51.7969 145.5,50.5C 145.624,49.8933 145.957,49.56 146.5,49.5 Z"/></g>
<g><path style="opacity:0.557" fill="#898787" d="M 163.5,48.5 C 163.586,49.4959 163.252,50.3292 162.5,51C 160.613,51.7796 158.946,51.6129 157.5,50.5C 159.858,50.7475 161.858,50.0808 163.5,48.5 Z"/></g>
<g><path style="opacity:0.439" fill="#a8a7a7" d="M 169.5,46.5 C 169.263,47.791 169.596,48.791 170.5,49.5C 171.167,50.8333 171.833,50.8333 172.5,49.5C 173.5,49.5 174.5,49.5 175.5,49.5C 172.809,51.5962 169.809,51.9295 166.5,50.5C 166.624,49.8933 166.957,49.56 167.5,49.5C 167.5,48.8333 167.5,48.1667 167.5,47.5C 168.167,47.1667 168.833,46.8333 169.5,46.5 Z"/></g>
<g><path style="opacity:1" fill="#545152" d="M 228.5,62.5 C 235.858,60.1037 237.191,55.7703 232.5,49.5C 234.138,48.0416 235.805,47.7083 237.5,48.5C 241.567,58.3312 238.567,64.6645 228.5,67.5C 228.5,65.8333 228.5,64.1667 228.5,62.5 Z"/></g>
<g><path style="opacity:0.976" fill="#777374" d="M 243.5,49.5 C 244.167,49.5 244.833,49.5 245.5,49.5C 247,54.6614 250,58.6614 254.5,61.5C 254.833,62.1667 255.167,62.8333 255.5,63.5C 249.716,60.3815 245.716,55.7148 243.5,49.5 Z"/></g>
<g><path style="opacity:0.92" fill="#918f8f" d="M 60.5,47.5 C 61.5676,46.5655 62.901,46.2322 64.5,46.5C 64.3801,48.7345 64.7135,50.9011 65.5,53C 65.0463,55.0299 64.3796,56.8632 63.5,58.5C 63.5,54.8333 63.5,51.1667 63.5,47.5C 62.5,47.5 61.5,47.5 60.5,47.5 Z"/></g>
<g><path style="opacity:1" fill="#555253" d="M 193.5,47.5 C 199.17,54.0549 198.504,60.2216 191.5,66C 189.975,67.0086 188.308,67.5086 186.5,67.5C 186.215,65.712 186.548,64.0453 187.5,62.5C 193.678,59.3095 194.678,54.9761 190.5,49.5C 191.602,48.8243 192.602,48.1577 193.5,47.5 Z"/></g>
<g><path style="opacity:1" fill="#363233" d="M 216.5,48.5 C 216.5,49.5 216.5,50.5 216.5,51.5C 218.735,51.7947 220.735,51.4614 222.5,50.5C 223.451,49.0813 223.784,47.4147 223.5,45.5C 224.5,45.5 225.5,45.5 226.5,45.5C 226.5,47.1667 226.5,48.8333 226.5,50.5C 226.631,53.3667 225.297,55.0334 222.5,55.5C 218.131,55.5328 213.798,55.1995 209.5,54.5C 206.448,50.2619 207.448,46.9286 212.5,44.5C 214.808,44.9655 216.142,46.2988 216.5,48.5 Z"/></g>
<g><path style="opacity:0.545" fill="#8a8888" d="M 216.5,48.5 C 218.114,50.0746 220.114,50.7413 222.5,50.5C 220.735,51.4614 218.735,51.7947 216.5,51.5C 216.5,50.5 216.5,49.5 216.5,48.5 Z"/></g>
<g><path style="opacity:1" fill="#6d6867" d="M 329.5,48.5 C 337.785,50.1392 344.118,54.4725 348.5,61.5C 347.508,61.3284 346.842,61.6618 346.5,62.5C 343.029,56.09 337.696,52.09 330.5,50.5C 330.167,49.8333 329.833,49.1667 329.5,48.5 Z"/></g>
<g><path style="opacity:0.584" fill="#a6a4a4" d="M 200.5,53.5 C 201.568,54.4345 202.901,54.7678 204.5,54.5C 202.965,55.7879 201.299,55.7879 199.5,54.5C 199.624,53.8933 199.957,53.56 200.5,53.5 Z"/></g>
<g><path style="opacity:0.011" fill="#fafafb" d="M 72.5,55.5 C 74.1667,55.5 75.8333,55.5 77.5,55.5C 77.5,55.8333 77.5,56.1667 77.5,56.5C 76.8333,56.5 76.5,56.8333 76.5,57.5C 76.1667,57.5 75.8333,57.5 75.5,57.5C 74.5,56.8333 73.5,56.1667 72.5,55.5 Z"/></g>
<g><path style="opacity:1" fill="#766c5c" d="M 405.5,56.5 C 405.511,58.0174 406.177,59.1841 407.5,60C 422.644,71.3181 437.311,83.1514 451.5,95.5C 439.58,96.4786 427.58,96.8119 415.5,96.5C 414.833,96.5 414.5,96.1667 414.5,95.5C 426.171,95.6665 437.838,95.4999 449.5,95C 433.646,82.6361 417.979,70.1361 402.5,57.5C 403.609,57.4431 404.609,57.1098 405.5,56.5 Z"/></g>
<g><path style="opacity:0.353" fill="#b9b8b8" d="M 77.5,56.5 C 78.609,56.5569 79.609,56.8902 80.5,57.5C 80.5,58.8333 80.5,60.1667 80.5,61.5C 80.1667,61.5 79.8333,61.5 79.5,61.5C 78.0813,62.4511 76.4147,62.7845 74.5,62.5C 74.2155,60.5853 74.5489,58.9187 75.5,57.5C 75.8333,57.5 76.1667,57.5 76.5,57.5C 77.1667,57.5 77.5,57.1667 77.5,56.5 Z"/></g>
<g><path style="opacity:1" fill="#504d4e" d="M 84.5,56.5 C 84.5,56.8333 84.5,57.1667 84.5,57.5C 84.5,58.8333 84.5,60.1667 84.5,61.5C 83.1667,61.5 81.8333,61.5 80.5,61.5C 80.5,60.1667 80.5,58.8333 80.5,57.5C 81.5676,56.5655 82.901,56.2322 84.5,56.5 Z"/></g>
<g><path style="opacity:1" fill="#5c5859" d="M 209.5,54.5 C 213.798,55.1995 218.131,55.5328 222.5,55.5C 220.631,56.1646 218.631,56.8313 216.5,57.5C 214.377,62.1238 210.877,65.1238 206,66.5C 204.228,65.0099 204.061,63.3432 205.5,61.5C 208.39,60.5601 210.723,58.8934 212.5,56.5C 211.398,55.8243 210.398,55.1577 209.5,54.5 Z"/></g>
<g><path style="opacity:1" fill="#353132" d="M 222.5,57.5 C 222.5,58.8333 222.5,60.1667 222.5,61.5C 221.167,61.5 219.833,61.5 218.5,61.5C 218.5,60.1667 218.5,58.8333 218.5,57.5C 219.833,57.5 221.167,57.5 222.5,57.5 Z"/></g>
<g><path style="opacity:0.322" fill="#a6a4a5" d="M 222.5,57.5 C 224.5,57.5 226.5,57.5 228.5,57.5C 228.5,59.1667 228.5,60.8333 228.5,62.5C 224.958,62.8128 221.625,62.4794 218.5,61.5C 219.833,61.5 221.167,61.5 222.5,61.5C 222.5,60.1667 222.5,58.8333 222.5,57.5 Z"/></g>
<g><path style="opacity:1" fill="#252122" d="M 224.5,58.5 C 225.5,58.5 226.5,58.5 227.5,58.5C 227.5,59.5 227.5,60.5 227.5,61.5C 226.5,61.5 225.5,61.5 224.5,61.5C 224.5,60.5 224.5,59.5 224.5,58.5 Z"/></g>
<g><path style="opacity:1" fill="#413d3e" d="M 48.5,47.5 C 47.8592,48.4822 47.1925,49.4822 46.5,50.5C 47.325,51.3857 48.325,51.719 49.5,51.5C 42.3043,56.0114 42.9709,59.0114 51.5,60.5C 54.7427,59.9852 57.5761,58.6519 60,56.5C 60.0873,53.2933 60.254,50.2933 60.5,47.5C 61.5,47.5 62.5,47.5 63.5,47.5C 63.5,51.1667 63.5,54.8333 63.5,58.5C 63.0432,60.7727 61.7099,62.106 59.5,62.5C 55.3025,63.8755 50.9691,64.5421 46.5,64.5C 40.5085,62.2884 39.0085,58.2884 42,52.5C 43.7772,50.2101 45.9438,48.5434 48.5,47.5 Z"/></g>
<g><path style="opacity:1" fill="#2f2c2d" d="M 79.5,61.5 C 78.1667,61.5 76.8333,61.5 75.5,61.5C 75.5,60.5 75.5,59.5 75.5,58.5C 76.8333,58.5 78.1667,58.5 79.5,58.5C 79.5,59.5 79.5,60.5 79.5,61.5 Z"/></g>
<g><path style="opacity:0.173" fill="#d3d2d2" d="M 84.5,57.5 C 85.4511,58.9187 85.7845,60.5853 85.5,62.5C 83.5853,62.7845 81.9187,62.4511 80.5,61.5C 81.8333,61.5 83.1667,61.5 84.5,61.5C 84.5,60.1667 84.5,58.8333 84.5,57.5 Z"/></g>
<g><path style="opacity:0.686" fill="#817f7f" d="M 59.5,62.5 C 58.9423,63.7899 57.9423,64.6232 56.5,65C 52.9733,65.8075 49.6399,65.6408 46.5,64.5C 50.9691,64.5421 55.3025,63.8755 59.5,62.5 Z"/></g>
<g><path style="opacity:1" fill="#b0922b" d="M 377.5,64.5 C 376.506,74.6532 376.172,84.9865 376.5,95.5C 376.167,95.5 375.833,95.5 375.5,95.5C 375.168,84.8126 375.501,74.1459 376.5,63.5C 377.107,63.6236 377.44,63.9569 377.5,64.5 Z"/></g>
<g><path style="opacity:0.914" fill="#898482" d="M 266.5,73.5 C 265.167,73.5 263.833,73.5 262.5,73.5C 255.867,72.8525 249.867,70.5192 244.5,66.5C 241.156,72.3358 236.156,75.3358 229.5,75.5C 221.167,75.5 212.833,75.5 204.5,75.5C 213.324,74.6703 222.324,74.1703 231.5,74C 237.146,72.3381 241.646,69.1714 245,64.5C 251.556,69.1788 258.722,72.1788 266.5,73.5 Z"/></g>
<g><path style="opacity:1" fill="#201d21" d="M 320.5,65.5 C 322.973,65.0882 324.306,66.0882 324.5,68.5C 324.167,68.5 323.833,68.5 323.5,68.5C 304.564,67.8453 285.564,67.1786 266.5,66.5C 284.488,65.5005 302.488,65.1671 320.5,65.5 Z"/></g>
<g><path style="opacity:0.87" fill="#6b655e" d="M 254.5,61.5 C 257.348,62.7718 260.348,63.6051 263.5,64C 282.671,64.1682 301.671,64.6682 320.5,65.5C 302.488,65.1671 284.488,65.5005 266.5,66.5C 285.564,67.1786 304.564,67.8453 323.5,68.5C 323.5,68.8333 323.5,69.1667 323.5,69.5C 307.163,69.6666 290.83,69.4999 274.5,69C 267.468,69.1629 261.134,67.3296 255.5,63.5C 255.167,62.8333 254.833,62.1667 254.5,61.5 Z"/></g>
<g><path style="opacity:1" fill="#383437" d="M 377.5,64.5 C 379.167,65.5 380.5,66.8333 381.5,68.5C 379.525,78.4459 378.858,88.7792 379.5,99.5C 371.5,100.833 363.5,100.833 355.5,99.5C 355.5,98.5 355.5,97.5 355.5,96.5C 362.687,96.8245 369.687,96.4912 376.5,95.5C 376.172,84.9865 376.506,74.6532 377.5,64.5 Z"/></g>
<g><path style="opacity:1" fill="#fcca07" d="M 262.5,73.5 C 263.398,74.1577 264.398,74.8243 265.5,75.5C 258.68,87.4211 248.347,94.0878 234.5,95.5C 219.99,95.8293 205.657,95.4959 191.5,94.5C 196.303,88.8543 200.969,83.021 205.5,77C 213.677,76.8292 221.677,76.3292 229.5,75.5C 236.156,75.3358 241.156,72.3358 244.5,66.5C 249.867,70.5192 255.867,72.8525 262.5,73.5 Z"/></g>
<g><path style="opacity:0.69" fill="#6e6967" d="M 381.5,68.5 C 392.796,77.1285 403.796,86.1285 414.5,95.5C 414.5,96.1667 414.833,96.5 415.5,96.5C 415.833,97.1667 416.167,97.8333 416.5,98.5C 404.56,89.0691 392.726,79.4024 381,69.5C 380.83,79.6751 380.33,89.6751 379.5,99.5C 378.858,88.7792 379.525,78.4459 381.5,68.5 Z"/></g>
<g><path style="opacity:0.157" fill="#d5d4d4" d="M 125.5,71.5 C 126.209,70.596 127.209,70.2627 128.5,70.5C 128.5,71.5 128.5,72.5 128.5,73.5C 128.167,73.5 127.833,73.5 127.5,73.5C 127.5,72.1667 126.833,71.5 125.5,71.5 Z"/></g>
<g><path style="opacity:0.184" fill="#c2c1c1" d="M 131.5,74.5 C 130.5,74.5 129.5,74.5 128.5,74.5C 128.5,74.1667 128.5,73.8333 128.5,73.5C 130.048,73.1788 130.715,72.1788 130.5,70.5C 131.5,70.5 132.5,70.5 133.5,70.5C 133.473,72.1993 132.806,73.5326 131.5,74.5 Z"/></g>
<g><path style="opacity:0.192" fill="#cacaca" d="M 132.5,74.5 C 133.5,74.5 134.5,74.5 135.5,74.5C 135.715,76.1788 135.048,77.1788 133.5,77.5C 133.611,76.8826 133.944,76.3826 134.5,76C 133.584,75.7216 132.918,75.2216 132.5,74.5 Z"/></g>
<g><path style="opacity:0.427" fill="#bcbbbb" d="M 156.5,76.5 C 155.698,75.0484 155.198,73.3817 155,71.5C 154.503,73.8098 154.337,76.1432 154.5,78.5C 153.833,78.5 153.167,78.5 152.5,78.5C 152.5,77.8333 152.5,77.1667 152.5,76.5C 153.461,74.7354 153.795,72.7354 153.5,70.5C 154.5,70.5 155.5,70.5 156.5,70.5C 156.5,72.5 156.5,74.5 156.5,76.5 Z"/></g>
<g><path style="opacity:0.91" fill="#888686" d="M 165.5,75.5 C 166.919,74.5489 168.585,74.2155 170.5,74.5C 170.5,75.5 170.5,76.5 170.5,77.5C 169.833,77.8333 169.167,78.1667 168.5,78.5C 167.5,77.5 166.5,76.5 165.5,75.5 Z"/></g>
<g><path style="opacity:0.584" fill="#959395" d="M 266.5,73.5 C 267.467,74.8062 268.801,75.4729 270.5,75.5C 270.737,76.791 270.404,77.791 269.5,78.5C 269.179,76.9519 268.179,76.2852 266.5,76.5C 266.5,75.5 266.5,74.5 266.5,73.5 Z"/></g>
<g><path style="opacity:0.999" fill="#706a68" d="M 323.5,68.5 C 323.833,68.5 324.167,68.5 324.5,68.5C 325.275,72.1816 323.941,74.6816 320.5,76C 304.929,75.8717 289.596,76.705 274.5,78.5C 274.5,77.8333 274.5,77.1667 274.5,76.5C 274.611,75.8826 274.944,75.3826 275.5,75C 290.833,74.6667 306.167,74.3333 321.5,74C 323.037,72.8904 323.703,71.3904 323.5,69.5C 323.5,69.1667 323.5,68.8333 323.5,68.5 Z"/></g>
<g><path style="opacity:0.941" fill="#5b5859" d="M 156.5,76.5 C 157.404,75.791 157.737,74.791 157.5,73.5C 159.911,73.1367 161.411,74.1367 162,76.5C 162.704,74.273 163.871,73.9397 165.5,75.5C 166.5,76.5 167.5,77.5 168.5,78.5C 165.763,79.0515 163.096,80.0515 160.5,81.5C 159.893,81.3764 159.56,81.0431 159.5,80.5C 158.448,78.744 156.781,78.0773 154.5,78.5C 154.337,76.1432 154.503,73.8098 155,71.5C 155.198,73.3817 155.698,75.0484 156.5,76.5 Z"/></g>
<g><path style="opacity:0.725" fill="#787676" d="M 170.5,77.5 C 171.041,75.2496 171.374,72.9162 171.5,70.5C 175.452,73.8873 175.285,77.2206 171,80.5C 170.517,79.552 170.351,78.552 170.5,77.5 Z"/></g>
<g><path style="opacity:0.929" fill="#5b5859" d="M 125.5,71.5 C 126.833,71.5 127.5,72.1667 127.5,73.5C 127.556,76.517 127.89,76.8503 128.5,74.5C 129.5,74.5 130.5,74.5 131.5,74.5C 131.833,74.5 132.167,74.5 132.5,74.5C 132.918,75.2216 133.584,75.7216 134.5,76C 133.944,76.3826 133.611,76.8826 133.5,77.5C 126.808,81.4503 124.142,79.4503 125.5,71.5 Z"/></g>
<g><path style="opacity:0.702" fill="#7b7979" d="M 116.5,81.5 C 114.158,80.9918 111.991,79.9918 110,78.5C 109.536,79.0944 109.369,79.7611 109.5,80.5C 104.611,77.6124 104.277,74.2791 108.5,70.5C 108.887,72.7308 109.053,75.0641 109,77.5C 110.323,74.9414 112.157,74.2747 114.5,75.5C 113.737,76.7193 112.737,77.7193 111.5,78.5C 113.045,79.4519 114.712,79.7852 116.5,79.5C 116.215,77.712 116.548,76.0453 117.5,74.5C 118.086,74.7093 118.586,75.0426 119,75.5C 121.222,72.6967 123.055,72.8634 124.5,76C 124.355,76.772 124.022,77.4387 123.5,78C 120.97,78.8911 118.637,80.0578 116.5,81.5 Z"/></g>
<g><path style="opacity:0.312" fill="#b9b7b8" d="M 154.5,78.5 C 156.781,78.0773 158.448,78.744 159.5,80.5C 157.694,79.9759 156.028,79.3092 154.5,78.5 Z"/></g>
<g><path style="opacity:1" fill="#837e7b" d="M 204.5,75.5 C 212.833,75.5 221.167,75.5 229.5,75.5C 221.677,76.3292 213.677,76.8292 205.5,77C 200.969,83.021 196.303,88.8543 191.5,94.5C 190.957,94.56 190.624,94.8933 190.5,95.5C 191.325,96.3857 192.325,96.719 193.5,96.5C 193.5,97.5 193.5,98.5 193.5,99.5C 208.167,99.5 222.833,99.5 237.5,99.5C 222.672,100.661 207.672,100.828 192.5,100C 191.167,99.3333 191.167,98.6667 192.5,98C 190.956,97.7104 189.623,97.0437 188.5,96C 193.732,89.007 199.066,82.1737 204.5,75.5 Z"/></g>
<g><path style="opacity:0.949" fill="#413d3e" d="M 116.5,81.5 C 115.726,82.1471 114.726,82.4805 113.5,82.5C 111.645,82.6598 110.312,81.9931 109.5,80.5C 109.369,79.7611 109.536,79.0944 110,78.5C 111.991,79.9918 114.158,80.9918 116.5,81.5 Z"/></g>
<g><path style="opacity:0.761" fill="#6c696a" d="M 152.5,76.5 C 152.5,77.1667 152.5,77.8333 152.5,78.5C 151.458,79.7911 150.292,79.7911 149,78.5C 146.293,82.0349 142.793,83.2016 138.5,82C 136.838,78.5027 137.838,76.0027 141.5,74.5C 144.814,77.1762 147.814,76.8428 150.5,73.5C 151.919,74.0047 152.585,75.0047 152.5,76.5 Z M 140.5,77.5 C 141.756,77.4614 142.756,77.9614 143.5,79C 142.167,79.6667 140.833,79.6667 139.5,79C 140.056,78.6174 140.389,78.1174 140.5,77.5 Z"/></g>
<g><path style="opacity:0.672" fill="#9899a3" d="M 280.5,41.5 C 304.167,41.5 327.833,41.5 351.5,41.5C 351.833,41.5 352.167,41.5 352.5,41.5C 352.5,59.8333 352.5,78.1667 352.5,96.5C 353.5,96.5 354.5,96.5 355.5,96.5C 355.5,97.5 355.5,98.5 355.5,99.5C 354.533,98.1938 353.199,97.5271 351.5,97.5C 351.822,91.642 351.489,85.9753 350.5,80.5C 351.833,75.8333 351.833,71.1667 350.5,66.5C 351.492,58.6841 351.826,50.6841 351.5,42.5C 327.661,42.8309 303.994,42.4976 280.5,41.5 Z"/></g>
<g><path style="opacity:0.969" fill="#6b5e49" d="M 274.5,76.5 C 274.5,77.1667 274.5,77.8333 274.5,78.5C 272.25,85.5898 267.917,91.0898 261.5,95C 281.497,95.5 301.497,95.6666 321.5,95.5C 302.338,96.3318 283.004,96.8318 263.5,97C 262.748,97.6708 262.414,98.5041 262.5,99.5C 261.188,98.1877 259.854,96.8543 258.5,95.5C 266.081,90.9304 271.414,84.5971 274.5,76.5 Z"/></g>
<g><path style="opacity:0.998" fill="#836f2e" d="M 191.5,94.5 C 205.657,95.4959 219.99,95.8293 234.5,95.5C 221.01,96.4957 207.344,96.829 193.5,96.5C 192.325,96.719 191.325,96.3857 190.5,95.5C 190.624,94.8933 190.957,94.56 191.5,94.5 Z"/></g>
<g><path style="opacity:1" fill="#494549" d="M 451.5,95.5 C 454.128,96.2545 454.795,97.7545 453.5,100C 441.5,100.667 429.5,100.667 417.5,100C 416.944,99.6174 416.611,99.1174 416.5,98.5C 416.167,97.8333 415.833,97.1667 415.5,96.5C 427.58,96.8119 439.58,96.4786 451.5,95.5 Z"/></g>
<g><path style="opacity:0.998" fill="#3d3a3d" d="M 348.5,61.5 C 349.931,62.7804 350.598,64.4471 350.5,66.5C 351.833,71.1667 351.833,75.8333 350.5,80.5C 348.03,90.4683 341.697,96.635 331.5,99C 308.457,100.757 285.457,100.923 262.5,99.5C 262.414,98.5041 262.748,97.6708 263.5,97C 283.004,96.8318 302.338,96.3318 321.5,95.5C 341.59,93.4094 349.924,82.4094 346.5,62.5C 346.842,61.6618 347.508,61.3284 348.5,61.5 Z"/></g>
<g><path style="opacity:0.958" fill="#2f2b2d" d="M 262.5,73.5 C 263.833,73.5 265.167,73.5 266.5,73.5C 266.5,74.5 266.5,75.5 266.5,76.5C 268.179,76.2852 269.179,76.9519 269.5,78.5C 262.935,91.4668 252.269,98.4668 237.5,99.5C 222.833,99.5 208.167,99.5 193.5,99.5C 193.5,98.5 193.5,97.5 193.5,96.5C 207.344,96.829 221.01,96.4957 234.5,95.5C 248.347,94.0878 258.68,87.4211 265.5,75.5C 264.398,74.8243 263.398,74.1577 262.5,73.5 Z"/></g>
<g><path style="opacity:1" fill="#ffe997" d="M 68.5,108.5 C 66.3718,107.043 64.0384,106.043 61.5,105.5C 61.7828,104.711 62.2828,104.044 63,103.5C 65.3284,104.664 67.1618,106.33 68.5,108.5 Z"/></g>
<g><path style="opacity:1" fill="#423f40" d="M 49.5,106.5 C 50.1408,107.482 50.8075,108.482 51.5,109.5C 50.7573,110.182 50.0906,110.849 49.5,111.5C 49.516,113.484 48.516,114.484 46.5,114.5C 43.9181,113.589 41.9181,111.923 40.5,109.5C 42.1667,107.167 44.1667,105.167 46.5,103.5C 47.8549,104.188 48.8549,105.188 49.5,106.5 Z"/></g>
<g><path style="opacity:0.787" fill="#a3a4a5" d="M 59.5,107.5 C 59.5,108.833 59.5,110.167 59.5,111.5C 58.1434,112.685 56.6434,113.685 55,114.5C 53.016,113.661 51.1826,112.661 49.5,111.5C 50.0906,110.849 50.7573,110.182 51.5,109.5C 50.8075,108.482 50.1408,107.482 49.5,106.5C 51.3936,105.952 53.0603,104.952 54.5,103.5C 56.1856,104.857 57.8523,106.19 59.5,107.5 Z"/></g>
<g><path style="opacity:0.999" fill="#fdd540" d="M 61.5,105.5 C 64.0384,106.043 66.3718,107.043 68.5,108.5C 196.835,108.167 325.168,108.5 453.5,109.5C 324.835,110.333 196.168,110.833 67.5,111C 66,112.5 64.5,114 63,115.5C 61.6244,114.295 60.4577,112.962 59.5,111.5C 59.5,110.167 59.5,108.833 59.5,107.5C 59.5,106.167 60.1667,105.5 61.5,105.5 Z"/></g>
</svg>